<?xml version="1.0" encoding="UTF-8"?>
<svg version="1.1" viewBox="0 0 1600 1600" width="1280" height="1280" xmlns="http://www.w3.org/2000/svg">
<path transform="translate(1077,131)" d="m0 0h16l17 3 25 1 17 3 9 4 9 6 7 7 9 14 5 16 2 10v25l-2 14-7 25-9 20-9 15-10 14-9 11-11 12-9 9-8 7-15 12-18 13-10 7-17 11-20 12-21 12-25 11-7 4v5l1 1h12l21-1 23-4 21-6 15-6 9-1-1 5-5 11-8 14-18 27-10 13-11 13-7 8-12 13-14 14-14 11-15 10-19 11-16 8-24 8-21 4-31 3-2 1v6l5 3 22 4 10 1h23l17-3 17-5h7l-1 5-10 21-9 16-13 23-14 24-14 23-10 15-11 14-11 12-4 5-13 10-19 10-23 9-13 4-31 6-5 2 1 7 7 1 29-2 18-3 29-9 9-1-2 5-9 12-11 12-7 8-12 12-22 18-18 13-19 11-32 15-24 9-35 9-21 5-8 5-1 1v5l100 1 11 4 4 5 3 8 1 5v7l-3 8-6 4-14 4-6 4-2 5 8 26 6 9 14 14 30 23 11 10 24 21 5 8v7l-9 15-10 13-11 13-11 14-10 13-13 17-10 12-14 19-9 12-10 13-6 10-2 9-1 23-1 3-4 2h-150l-27-1-3-2-1-24-2-12-6-10-20-25-13-17-13-16-9-12-11-14-16-21-12-16-10-15-1-7 5-10 9-10 8-7 12-10 42-33 8-8 10-15 2-4-1-9-3-13-6-5-11-6-6-7-2-6v-12l3-6 6-5 8-2h98l5-3v-11l-2-6-20-12-8-7-9-14-6-18-3-19-1-9v-24l5-44 7-32 8-31 12-41 13-38 6-14 2 1 2 32 2 16 7 29 5 14 8 15 10 14 6 7 7 1 1-4-11-28-5-15-3-14-3-24-1-22 1-21 4-29 8-30 9-27 11-28 7-13 5-4 5 3 9 15 7 8 6 10 18 24 2 2h3l1-7-7-12-6-12-8-24-5-22-1-8v-9l2-15 12-29 9-17 14-22 12-17 8-10 7-8 11-13 9-11 8-8 7-8 10-11h3l4 15 5 18 10 24 8 14 9 13 8 11 5-1v-7l-8-36-4-25v-26l2-19 3-10 9-12 4-5 11-9 10-9 17-13 13-9 3-1 1 1v34l5 35 2 4 6-1 4-15 8-38 6-21 4-6 9-9 25-13 28-11 28-9 20-5zm-173 257m-1 1-14 13-9 11-7 8-10 13-12 14-11 15-9 12-8 13-3 5v2l7-2 10-9 12-15 12-16 10-13 26-36 6-10 1-5zm-105 35-4 4-4 13v5l5 4 5-2 4-8 1-9-2-6z" fill="#952F25"/>
<path transform="translate(712,656)" d="m0 0 1 4-6 12-8 15-11 24-5 13-5 12-5 15-8 16-3 11-1 9 1 5 13-7h2l2-5 4-4 3-4 6-16 8-21 6-12 1 3-13 36-6 20-6 17-10 27-7 20-6 16-9 30-4 19 1 4-13 7-2 2v5l100 1 11 4 4 5 3 8 1 5v7l-3 8-6 4-14 4-6 4-2 5 8 26 6 9 14 14 30 23 11 10 24 21 5 8v7l-9 15-10 13-11 13-11 14-10 13-13 17-10 12-14 19-9 12-10 13-6 10-2 9-1 23-1 3-4 2h-150l-27-1-3-2-1-24-2-12-6-10-20-25-13-17-13-16-9-12-11-14-16-21-12-16-10-15-1-7 5-10 9-10 8-7 12-10 42-33 8-8 10-15 2-4-1-9-3-13-6-5-11-6-6-7-2-6v-12l3-6 6-5 8-2h98l5-3v-11l-2-6-1-2 7-2 7-10 5-5 2-3 2-13 6-12 2-5 4-6 6-14 2-6 5-12 6-15 11-25 13-26 10-21 5-13 5-11 3-7 13-26 8-14z" fill="#56351B"/>
<path transform="translate(939,825)" d="m0 0h29l16 4 15 8 11 9 8 9 7 11 7 18 2 11v17l-3 15-8 16-7 10-6 7 1 8 6 16 1 10-3 9-8 5-21 5-2 1v7l8 28 16 64 9 29 7 16 8 11 10 7 16 8 13 7 11 8 7 8 4 11 4 15 6 7 22 7 10 6 2 4 1 19v35l-1 15-3 10-6 5-20 8-4 2-1 2-3 35-3 2-35 1-150 2h-39l-54-1-11-2-2-2v-34l-2-6-3-1-11-1-9-4-5-5-3-5-2-11v-38l1-18 3-9 4-6 3-3 3-1 16-1 3-3 8-18 10-18 10-11 10-8 14-7 12-5 11-8 8-15 8-22 18-65 8-31 3-14v-7l-17-3-12-3-4-8-1-11 3-13 6-12-2-6-7-8-5-6-5-11-3-11-1-9v-12l3-19 5-13 7-13 12-13 8-6 14-7z" fill="#56351B"/>
<path transform="translate(939,825)" d="m0 0h29l16 4 15 8 11 9 8 9 7 11 7 18 2 11v17l-3 15-8 16-7 10-6 7 1 8 6 16 1 10-3 9-8 5-21 5-2 1v9l-3-2-3-5-2-2-18-3-7 2-3 3-7-1-8-2-4 1-4 5-1-6-17-3-12-3-4-8-1-11 3-13 6-12-2-6-7-8-5-6-5-11-3-11-1-9v-12l3-19 5-13 7-13 12-13 8-6 14-7z" fill="#56351B"/>
<path transform="translate(701,973)" d="m0 0h29l-4 3-5 4-1 4 8 26 6 9 14 14 30 23 11 10 16 14 7 6-2 6-3 3-14-1-2-1-1-3-1-15-9-3-6-4v-3l-6-2v-2l-6-2-5-3-11-1-5 3 1 13-2 3h-9l-10-2-18-1-7-1h-16l-26-3-28-1-21-1h-26l-52 4-15 2-7 2-12 3h-3l-1-3 4-3 12-2 7-3 8-2h4v-2l8-4 13-4 13-5 12-4 5-1 1-2 17-7 13-5 19-10 8-4 10-7 10-5 10-7 7-5h3l2-4 11-7 4-3z" fill="#7D5634"/>
<path transform="translate(982,262)" d="m0 0h6l2 2v16l2 6h10l1 5-3 9-4 6-5 4-5 5-9 8-4 5-6 5-1 2h-2l-1 3h-2l-1 3-4 4h-2l-1 3h-2v3l-2 1-4 8-6 7-8 12-8 11-1 2h-2l-2 5-6 8-6 11-7 9-10 12-5 2-2 5-15 14-1 2h-2l-2 5-4 5-7 11-4 8-3 1-1 4-8 16-8 10-8 12-5 5-5 8h-2l-2 6-11 15-5 8h-2l-2 6-12 18-9 15-8 14-1-3 13-23 7-11 2-4h2l1-4 7-11 8-13 10-18 3-1 1-4 5-9h2l2-6 2-3-2-1-4 9-7 10-7 12h-2v2l-5 2-3 1-2 4-11 16-5 4-1-5v-4l-6 11-7 12-1 2-3 1-9 14-6 11-11 17-1 2h-2l-2 6-5 7-1-2 6-10 1-3 3-3 3-7h2l2-6 5-7 4-9h2l1-4 1-3h2l1-4 3-5 2-1 3-5 1-3 2-1 1-3 3-3 4-8 6-8 2-2 2-5 3-5h2l2-4 2-6 5-5 2-4h2l2-5 3-6 3-5h2l2-6 2-4h2l2-6 3-1v-2h2l2-5 3-5h2l1-4 4-6 7-7 12-16 4-2-6 8-8 11-9 12-8 13-4 7 10-5 7-7 13-17 20-26 26-36 6-10v-3l-12 11-5 6-1-3 8-11 2-3h2l2-4 6-7h2l1-4 5-4 4-5 4-4h2l2-4 5-5 6-7 5-4 7-8 4-2 2-4 6-6h2l2-4 5-7 5-4h2l1-4 1-9h-2l-3-7v-10l3-10 5-5z" fill="#9B6A4E"/>
<path transform="translate(745,733)" d="m0 0h24l62 1 24 2 14 2h7 3l-11 12-4 5-13 10-19 10-23 9-13 4-26 5-4-1 8-4-14-4-20-4-7-4-3-4-2-6v-8l2-13 4-8 5-3z" fill="#BB8076"/>
<path transform="translate(818,515)" d="m0 0 3 1-5 10h-2l-1 4-5 9-4 4-12 22-12 18-1 3h-2l-1 4-9 14-8 14-3 6-2 8-9 16-34 68-6 11-7 15-7 20-5 11-5 7h-2l-2 5-13 7h-2v-4l-2-1 1-11 4-11 8-16 4-13 6-15 7-16 9-20 7-13 6-12 2-7 6-7 5-9h2l2-5 11-18 6-10 7-11 5-4 7-13 6-10 1 2v7l5-4 8-12 5-7 5-3h3v-2h2l2-5 6-10 7-10z" fill="#826240"/>
<path transform="translate(897,968)" d="m0 0 3 1v2h3l4 4v2l11 2 11 3 21 1 10 2 1 1 10 1 10-2 3-1 1-2 7-2 9-6h6l2 1v3h3l3 10 2-4 1 10-3 9-8 5-21 5-2 1v9l-3-2-3-5-2-2-18-3-7 2-3 3-7-1-8-2-4 1-4 5-1-6-17-3-12-3-4-8-1-11 3-13z" fill="#7D5634"/>
<path transform="translate(703,976)" d="m0 0h16l4 2-3 4 3 11 5 17 6 9 10 10-1 2h-7v-2l-4-2-10-3h-6v1h-9l-1 1-13-1-1 1h-13l-6-2h-13l-2-1 1-4 7-12h2v-2h2l1-3h2l3-5h2v-2h2l1-3 7-4 4-3h2v-3l4-3h2v-2z" fill="#9C6A4E"/>
<path transform="translate(932,844)" d="m0 0 14 7 5 8 3 10-2 13-2 6-3 3-10 2-8 5-3 3-7-1-6-4-8-3v-2l-4-1-2-7 1-12 2-8-3-4 1-3h2l2-6 1-2h3v-2l6 1 3 2h5l4-3z" fill="#7D5634"/>
<path transform="translate(548,973)" d="m0 0 7 2 3 1 4 7 7 11 1 6-2 6-8 14-4 2v2l-5 4-9 5-5 4-5 3-10 3-3 2-7 1-3-3 1-9 10-12 4-8h2l5-20 3-14 7-6z" fill="#7D5634"/>
<path transform="translate(693,981)" d="m0 0 3 1h-2v3l-6 4-7 4-1 2h-2v2h-2l-1 4-3 3-1-1-1 2h-2v2h-2l-2 5-6 11h15l6 2 13 1 1-2 13 2 1-2 4-1h11l10 3 4 3v2l9-1 13 11 2 2v4l-6-1-5-1v-2l-6-1v-2l-6-1-7-3h-22l-10 5-1 3h-7l-13-3v1l-6 1h-8l-9-2v-2l-7 1h-11l-9-6 1-7 4-4h3v-2l20-11h2v-2l6-4 6-5 6-4 4-4z" fill="#826340"/>
<path transform="translate(978,1225)" d="m0 0 7 1 3 6 2 10 4 1 19 1 46 1 22 1 8 2 3 2-7 2h-15l-16 1h-36l-25 2h-8l-4-1-11 1-9-1h-22l-11-1h-53l-15-2-2-2 2-2 29-1 52-1h24l9-1 2-18z" fill="#7D5634"/>
<path transform="translate(733,626)" d="m0 0 1 2-12 20-8 16-10 19-5 13-4 8-4 14-3 15 5-2 4-5h2l1-3h2v-2l2-1 6-14 7-12 6-12 4-3-1 7-15 30-6 11-7 15-7 20-5 11-5 7h-2l-2 5-13 7h-2v-4l-2-1 1-11 4-11 8-16 4-13 6-15 7-16 9-20 7-13 6-12 2-7 6-7 5-9h2l2-5z" fill="#7D5634"/>
<path transform="translate(745,733)" d="m0 0h24l62 1 24 2 14 2h7 3l-4 4-6 1h-8l-18-2-15-2-19-1h-24l-35-1-4 1-1 3 3 5-5 5-5 1-1 6h-2v2h-2l1 8 2 4 8 4 19 2h18l19 1 8 3v2l-12 4-26 5-4-1 8-4-14-4-20-4-7-4-3-4-2-6v-8l2-13 4-8 5-3z" fill="#9C694D"/>
<path transform="translate(853,444)" d="m0 0 2 1-7 8-7 10-9 12-8 13-3 5-4 4-13 21-8 13-15 23-7 12-2 4-1-3-6 11-7 12-1 2-3 1-9 14-6 11-11 17-1 2h-2l-2 6-5 7-1-2 6-10 1-3 3-3 3-7h2l2-6 5-7 4-9h2l1-4 1-3h2l1-4 3-5 2-1 3-5 1-3 2-1 1-3 3-3 4-8 6-8 2-2 2-5 3-5h2l2-4 2-6 5-5 2-4h2l2-5 3-6 3-5h2l2-6 2-4h2l2-6 3-1v-2h2l2-5 3-5h2l1-4 4-6 7-7 12-16z" fill="#A7715C"/>
<path transform="translate(830,490)" d="m0 0 1 2-13 19-16 24-11 17-12 17-6 7-2-1v-5l12-21 10-15 9-14 9-15 8-12 1 2z" fill="#FEFEFE"/>
<path transform="translate(894,974)" d="m0 0 2 1v4l5 1 1 6 2 6 1 1 9 1 10 3 2 5-5 6v3l-14-1-12-3-4-8-1-11 3-13z" fill="#856644"/>
<path transform="translate(950,337)" d="m0 0h3l-2 6-9 10-7 8-8 10-9 11-6 8h-2l-2 4-6 8h-2l-2 4-6 7-2-1 8-11 5-10-5 4-6 4 2-5 4-5h2l2-4 5-6h2l2-4 30-30h2v-2l5-4h2z" fill="#BC8278"/>
<path transform="translate(613,902)" d="m0 0 5 1 3 5 3 12v7l-1 3h-3l-1 3-4 2h-9l-3-3 1-9v-9l4-8z" fill="#81623F"/>
<path transform="translate(437,1066)" d="m0 0 3 4-2 8h-2l4 7 2 1-1 4-5 3-13-1-1 3-7 1v-2l-2-1 4-10 9-10z" fill="#98674A"/>
<path transform="translate(551,983)" d="m0 0 4 1 2 1 1 7-3 10-8 9-4 1-5-5v-9l2-8 3-5z" fill="#9C694D"/>
<path transform="translate(981,901)" d="m0 0 4 2 3 8v18l-5 5h-5l-3-4-1-4v-12l3-7z" fill="#856341"/>
<path transform="translate(780,552)" d="m0 0 1 2-7 12-2 4-1-3-6 11-7 12-1 2-3 1-9 14-6 11-11 17-1 2h-2l-2 6-5 7-1-2 6-10 1-3 3-3 3-7h2l2-6 5-7 4-9h2l1-4 1-3h2l1-4 3-5 2-1 3-5 1-3 2-1 1-3 3-3 4-8 6-7z" fill="#9E6B50"/>
<path transform="translate(613,1226)" d="m0 0h5l2 2-1 17-3 5-7 2-3-2v-11l2-9z" fill="#8D6143"/>
<path transform="translate(795,1072)" d="m0 0 8 6 9 8-2 6-3 3-6-1-3-1-2-7-4-3-1-4z" fill="#82613E"/>
<path transform="translate(818,515)" d="m0 0 3 1-5 10h-2l-1 4-5 9-4 4-12 22-12 18-1 3h-2l2-7 5-8 6-11 7-11 1-2h2l2-5 6-10 7-10z" fill="#7D5634"/>
<path transform="translate(981,266)" d="m0 0 5 1-2 9-1 17-5-1-3-5v-12l4-8z" fill="#FEFEFE"/>
<path transform="translate(928,362)" d="m0 0h2l-2 5-8 9-6 8h-2l-2 4-2 3h-2l-2 5-5 5 2-5 2-6v-3l7-7 7-8 3-3h2l2-4z" fill="#FEFEFE"/>
<path transform="translate(558,988)" d="m0 0h1v8l-3 9-4 6-1 2-5 3-5 2-5 1-2-7 2-4v-9l2-1 1 9 2 4 6-1 8-10 2-11z" fill="#826340"/>
<path transform="translate(815,520)" d="m0 0v3l-10 15-5 9h-2v2l-5 2-2 1 2-5 16-24z" fill="#8E684A"/>
<path transform="translate(970,317)" d="m0 0h3l-1 4h-2v2h-2l-2 4-4 6-5 5-6 5 2-6h-3v2l-4 1 1-2h2l2-4 9-8h2v-2l5-4z" fill="#8B6748"/>
<path transform="translate(979,1228)" d="m0 0h5l3 12v5l-1 1-7-1-2-4v-9z" fill="#FEFEFE"/>
<path transform="translate(613,902)" d="m0 0 5 1 3 5 3 12v7l-1 3h-3l-1 3-4 2h-9l-3-3 1-8h1l1 7 4 2 7-2 3-6v-8l-3-10-5-1-5 3 2-4z" fill="#7D5634"/>
<path transform="translate(437,1066)" d="m0 0 3 4-2 8h-2l4 7 2 1-1 4-5 3-14-1 2-4 9-1 2 3 4-1-4-8-2-8 2-3-2-1z" fill="#7D5634"/>
<path transform="translate(853,444)" d="m0 0 2 1-7 8-7 10-9 12-8 13-3 5-3 1 3-9 4-6h2l1-4 4-6 7-7 12-16z" fill="#B48674"/>
<path transform="translate(983,263)" d="m0 0 4 2-1 9-1 2v9l1 10-4 1-6-4-3-8 1-14 4-6zm-2 3-4 4-2 5v12l3 5 5 1 1-17 2-9z" fill="#BB8076"/>
<path transform="translate(1107,1244)" d="m0 0 6 2h9l3 2-1 1 3 2v2l-7 1-7-2-7-1-4-3 2-3z" fill="#7C5533"/>
<path transform="translate(613,1229)" d="m0 0h4v10l-2 9-4 1-2-1v-10l3-8z" fill="#FEFEFE"/>
<path transform="translate(978,1225)" d="m0 0 7 1 3 6 1 9v5l-5 2-4 1-4-3v-5l-1-1v-9l1-5zm1 3-2 4v9l2 4 7 1 1-1-1-11-2-6z" fill="#92674B"/>
<path transform="translate(929,366)" d="m0 0v3l-7 8-10 13h-2l-2 4-6 8h-2l-2 4-6 7-2-1 8-11 5-5 3-5h2l2-4 8-9 7-8z" fill="#BB8177"/>
<path transform="translate(786,574)" d="m0 0v3l-6 11-9 13-9 15-6 11-1-3 13-23 7-11 2-4h2l1-4z" fill="#9C694D"/>
<path transform="translate(981,906)" d="m0 0 3 1-1 19-4 1-2-8v-7l3-5z" fill="#FEFEFE"/>
<path transform="translate(797,1074)" d="m0 0 8 6 2 2 1 5-2 3h-5l-4-8-2-3v-3h2z" fill="#BE877E"/>
<path transform="translate(938,865)" d="m0 0 5 1 1 7-2 4-4 1-3-4v-6z" fill="#826340"/>
<path transform="translate(818,489)" d="m0 0 2 1-4 9-11 17-1-4 1-4h2l2-6 2-4h2l2-6 3-1z" fill="#A9725E"/>
<path transform="translate(740,612)" d="m0 0 1 2-11 18-3 5h-2l-2 6-5 7-1-2 6-10 1-3 3-3 3-7h2l2-6z" fill="#9C694D"/>
<path transform="translate(745,642)" d="m0 0 1 4-7 13h-2l-2 6-4 8-2-1 12-25z" fill="#835A39"/>
<path transform="translate(791,1080)" d="m0 0 1 3 4 2 2 3v5l3 1h-8l-2-1-1-9z" fill="#7E5836"/>
<path transform="translate(770,570)" d="m0 0 2 2 1 3 3-2-2 4-8 10-3 1 1-5 3-6z" fill="#BB8076"/>
<path transform="translate(906,379)" d="m0 0v3l-6 7h-2l-2 4-7 11-5 4 1-4 9-13h2l2-4 6-7z" fill="#A5745C"/>
<path transform="translate(1006,977)" d="m0 0 3 4-2 4h-10l2-6z" fill="#826340"/>
<path transform="translate(984,907)" d="m0 0h1v19l-3 4-4-1-2-7v-10h1l2 13v2l3-1z" fill="#BB8076"/>
<path transform="translate(775,1056)" d="m0 0 4 1 10 9 5 4v3l-4-1-5-6-10-8z" fill="#5F3E23"/>
<path transform="translate(932,352)" d="m0 0v3l-22 22-1 2-3-1 4-5 5-4 5-6h2l2-4z" fill="#9C694D"/>
<path transform="translate(427,1075)" d="m0 0 3 1 1 5-4 4h-5l1-7z" fill="#BB8076"/>
<path transform="translate(546,980)" d="m0 0 9 1 2 4-6-1-9 3-2 3 1-7z" fill="#826340"/>
<path transform="translate(981,901)" d="m0 0 4 2-2 4-4 2-1 3h-2v13h-1v-15z" fill="#8E6648"/>
<path transform="translate(757,618)" d="m0 0 1 3-2 3-2 8-5 6h-2l2-6z" fill="#855B3B"/>
<path transform="translate(983,263)" d="m0 0 4 2-1 9-2 2 1-9-6 1-5 5 1-5 3-4z" fill="#B27A6B"/>
<path transform="translate(655,1018)" d="m0 0 3 2-7 4 4 1h2v2l-6 1-6-2 5-5z" fill="#9C694D"/>
<path transform="translate(1014,991)" d="m0 0h2l1 7-2 5h-3l-1-6h2z" fill="#5D3C21"/>
<path transform="translate(987,911)" d="m0 0h1v18l-5 5h-5v-3l3 1 4-4h1z" fill="#7F5A38"/>
<path transform="translate(818,515)" d="m0 0 3 1-5 10h-2l-1 4-3 1 2-5 3-4z" fill="#7D5835"/>
<path transform="translate(853,444)" d="m0 0 2 1-7 8-7 10-4 4 1-4 13-17z" fill="#B88C7B"/>
<path transform="translate(608,1238)" d="m0 0h1v10h6v-3h2l-1 5-7 2-2-1z" fill="#A5715D"/>
<path transform="translate(987,1240)" d="m0 0 2 3-1 4-4 2-6-1-2-2 1-5 4 4h5z" fill="#AB7562"/>
<path transform="translate(609,1229)" d="m0 0h1v9h-2v10l-2 2v-11l2-9z" fill="#8A6042"/>
<path transform="translate(1100,1367)" d="m0 0h1v13l-1 8h-1l-1-8-1-4z" fill="#886142"/>
<path transform="translate(795,1072)" d="m0 0 2 1v3l-3 1 1 4 4 6 1 5-2-1-3-6-3-2-1-4z" fill="#9B6C50"/>
<path transform="translate(860,755)" d="m0 0 2 1-11 9-7 4-2-1 14-10z" fill="#FEFEFE"/>
<path transform="translate(976,1226)" d="m0 0 8 1v1l-5 1-2 12-2-1v-9z" fill="#A5725E"/>
<path transform="translate(817,511)" d="m0 0 2 4-5 7-4 1 2-5z" fill="#9C6E56"/>
<path transform="translate(760,1044)" d="m0 0 4 1 10 8v2l-5-2-9-8z" fill="#65452A"/>
<path transform="translate(836,465)" d="m0 0 1 3-6 9-2-4z" fill="#AA7A63"/>
<path transform="translate(955,331)" d="m0 0v3 2l4-2-2 4-6 5 2-6-3-1z" fill="#826340"/>
<path transform="translate(1107,1242)" d="m0 0 9 2 5 2v1h-8l-4-2v-2z" fill="#5F3D22"/>
<path transform="translate(835,485)" d="m0 0 1 3-2 5-6 4 2-5 3-5z" fill="#AA8671"/>
<path transform="translate(429,1071)" d="m0 0 2 1-2 4-5 2-2 4-2-3z" fill="#87603F"/>
<path transform="translate(611,1227)" d="m0 0 7 1v9h-1v-8l-5 2-2 3v-6z" fill="#AA7563"/>
<path transform="translate(974,914)" d="m0 0h1l1 8h1l1 7-2 2-2-5z" fill="#815C3A"/>
<path transform="translate(806,1082)" d="m0 0 4 2v5l-4 4-2-1 3-5z" fill="#8E6647"/>
<path transform="translate(818,489)" d="m0 0 2 1-4 9-2 1 1-8 3-1z" fill="#A6705B"/>
<path transform="translate(897,402)" d="m0 0h3l-2 4-6 7-2-1z" fill="#D2ABA5"/>
</svg>
